<?xml version="1.0" standalone="no"?>
<!DOCTYPE svg PUBLIC "-//W3C//DTD SVG 20010904//EN"
 "http://www.w3.org/TR/2001/REC-SVG-20010904/DTD/svg10.dtd">
<svg version="1.0" xmlns="http://www.w3.org/2000/svg"
 width="16.000000pt" height="16.000000pt" viewBox="0 0 16.000000 16.000000"
 preserveAspectRatio="xMidYMid meet">
<metadata>
Created by potrace 1.11, written by Peter Selinger 2001-2013
</metadata>
<g transform="translate(0.000000,16.000000) scale(0.021053,-0.021053)"
fill="#000000" stroke="none">
<path d="M395 730 c-3 -19 -7 -61 -8 -92 -2 -31 -7 -61 -11 -65 -5 -4 -6 -3
-3 3 6 11 -112 94 -134 94 -16 0 -10 -16 14 -38 19 -18 26 -19 37 -9 10 10 12
9 7 -5 -4 -11 3 -28 18 -45 21 -24 26 -26 35 -13 8 12 10 9 10 -12 0 -33 39
-75 52 -56 4 7 8 11 9 8 0 -3 2 -13 4 -23 2 -10 35 -50 74 -89 39 -39 71 -75
71 -81 0 -6 -8 -3 -17 5 -10 9 -24 13 -32 10 -10 -3 -12 0 -8 12 7 18 -28 56
-53 56 -41 0 -54 -55 -20 -85 19 -17 21 -17 42 1 13 10 17 12 11 4 -15 -20
-11 -44 12 -69 14 -16 21 -18 32 -10 10 9 13 6 13 -13 0 -14 9 -33 20 -43 19
-17 21 -17 40 0 20 18 21 18 12 -5 -5 -13 -19 -27 -32 -32 -14 -5 -21 -6 -17
-2 10 10 -33 54 -53 54 -9 0 -22 -6 -30 -12 -8 -7 -7 -4 3 8 24 29 21 39 -15
57 -31 15 -34 15 -58 -6 -22 -19 -22 -18 3 9 l27 30 -20 22 c-12 12 -27 22
-35 22 -23 0 -18 11 22 52 36 37 36 38 18 58 -10 11 -26 20 -36 20 -12 0 -16
5 -13 14 7 18 -43 56 -64 49 -14 -5 -15 -3 -5 7 10 11 9 18 -9 37 -24 25 -48
29 -66 11 -30 -30 10 -106 42 -79 12 10 13 9 9 -9 -7 -28 34 -75 53 -59 9 7
12 6 9 -8 -1 -10 7 -28 18 -40 11 -13 16 -23 10 -23 -6 0 -16 7 -23 15 -7 8
-21 15 -31 15 -11 0 -16 5 -13 14 7 18 -45 58 -65 51 -13 -5 -13 -4 -4 6 10
10 8 18 -9 36 -24 25 -48 29 -66 11 -18 -18 -14 -53 8 -73 20 -18 21 -18 35 1
13 18 14 18 8 -3 -10 -41 46 -98 60 -60 2 6 4 0 4 -15 0 -16 -2 -28 -4 -28 -3
0 -22 13 -43 30 -36 29 -56 38 -47 23 3 -5 -23 -7 -56 -5 -34 2 -80 -1 -101
-5 l-39 -9 109 -39 109 -40 110 -108 c61 -60 123 -115 139 -124 45 -23 111
-25 138 -3 22 18 23 17 60 -11 l37 -30 31 32 c29 31 30 33 13 53 -10 11 -25
26 -33 32 -13 11 -12 15 3 32 10 11 20 35 21 54 5 69 -11 96 -135 223 -65 68
-119 125 -119 127 0 3 -18 51 -39 108 -38 99 -40 103 -46 70z m-45 -450 c0 -5
-2 -10 -4 -10 -3 0 -8 5 -11 10 -3 6 -1 10 4 10 6 0 11 -4 11 -10z m250 -9 c0
-5 -9 -11 -19 -14 -17 -4 -18 -2 -8 13 10 18 27 18 27 1z"/>
<path d="M58 695 c-8 -18 -8 -29 -1 -36 15 -15 33 -3 33 22 0 10 5 19 10 19 6
0 10 5 10 10 0 21 -41 9 -52 -15z"/>
<path d="M112 698 c-18 -18 -14 -53 8 -73 20 -18 21 -18 50 10 l30 29 -22 23
c-24 25 -48 29 -66 11z"/>
<path d="M182 634 c-28 -19 -28 -36 1 -69 l22 -26 29 30 c25 26 27 33 16 46
-24 29 -45 35 -68 19z"/>
<path d="M56 613 c3 -14 10 -35 15 -46 11 -19 12 -19 37 6 l26 26 -25 20 c-36
30 -59 27 -53 -6z"/>
<path d="M110 560 c-26 -26 -25 -42 3 -68 l23 -22 27 28 c30 32 32 38 15 56
-25 24 -48 26 -68 6z"/>
<path d="M162 410 c7 -11 17 -20 22 -20 5 0 1 9 -9 20 -10 11 -20 20 -22 20
-2 0 2 -9 9 -20z"/>
</g>
</svg>
