<?xml version="1.0" encoding="utf-8"?>
<!-- Generator: Adobe Illustrator 21.0.2, SVG Export Plug-In . SVG Version: 6.00 Build 0)  -->
<svg version="1.1" id="Layer_1" xmlns="http://www.w3.org/2000/svg" xmlns:xlink="http://www.w3.org/1999/xlink" x="0px" y="0px"
	 viewBox="0 0 75.9 75.9" style="enable-background:new 0 0 75.9 75.9;" xml:space="preserve">
<style type="text/css">
	.st0{fill:#F4D600;}
	.st1{fill:#2B8918;}
</style>
<path class="st0" d="M42.6,51.8c-1.6,1.6-1.6,4.2,0,5.8l2.9,2.9l5.8-5.8l-2.9-2.9C46.9,50.1,44.2,50.1,42.6,51.8z"/>
<path class="st0" d="M49.6,44.8c-1.6,1.6-1.6,4.2,0,5.8l2.9,2.9l5.8-5.8l-2.9-2.9C53.8,43.2,51.2,43.2,49.6,44.8z"/>
<path class="st0" d="M49,58.2c-1.6,1.6-1.6,4.2,0,5.8l3,2.9l5.8-5.8l-2.9-2.9C53.3,56.5,50.7,56.5,49,58.2C49,58.1,49,58.1,49,58.2z
	"/>
<path class="st0" d="M56,51.2c-1.6,1.6-1.6,4.2,0,5.8l2.9,2.9l5.8-5.8l-2.9-2.9C60.2,49.6,57.6,49.6,56,51.2z"/>
<path class="st0" d="M23.4,32.5c-1.6,1.6-1.6,4.2,0,5.8l2.9,2.9l5.8-5.8l-2.9-2.9C27.6,30.9,25,30.9,23.4,32.5z"/>
<path class="st0" d="M30.4,25.6c-1.6,1.6-1.6,4.2,0,5.9l2.9,2.9l5.8-5.9l-2.9-2.9C34.6,24,32,24,30.4,25.6z"/>
<path class="st0" d="M37.3,24.5l2.9,2.9l4.5-4.5c-2.1-1.7-4.2-3.4-6.4-5c-2,1-2.8,3.5-1.8,5.6C36.8,23.8,37.1,24.2,37.3,24.5
	L37.3,24.5z"/>
<path class="st0" d="M22.2,39.5c-0.8-0.8-1.9-1.2-3.1-1.2c1.5,1.9,3,3.8,4.5,5.6l1.5-1.5L22.2,39.5z"/>
<path class="st0" d="M29.8,39c-1.6,1.6-1.6,4.2,0,5.8l2.9,2.9l5.8-5.8L35.6,39C34,37.4,31.4,37.4,29.8,39z"/>
<path class="st0" d="M36.8,32c-1.6,1.6-1.6,4.2,0,5.8l2.9,2.9l5.8-5.8L42.6,32C41,30.4,38.4,30.4,36.8,32z"/>
<path class="st0" d="M43.7,30.9l2.9,2.9l5-5c-1.8-1.6-3.7-3.3-5.7-4.9c-2.3,0.4-3.8,2.5-3.4,4.7C42.7,29.5,43.1,30.3,43.7,30.9
	L43.7,30.9z"/>
<path class="st0" d="M36.2,45.3c-1.6,1.6-1.6,4.2,0,5.8l2.9,2.9l5.8-5.8l-2.9-2.9C40.5,43.7,37.8,43.7,36.2,45.3z"/>
<path class="st0" d="M43.2,38.4c-1.6,1.6-1.6,4.2,0,5.8l2.9,2.9l5.9-5.9l-3-2.9C47.4,36.8,44.8,36.8,43.2,38.4z"/>
<path class="st0" d="M50.1,31.4c-1.6,1.6-1.6,4.2,0,5.8l2.9,2.9l5.2-5.2c-1.6-1.5-3.3-3.1-5-4.8C52.1,30.2,51,30.6,50.1,31.4z"/>
<path class="st0" d="M10,13.4c-1.2-1.2-3-1.5-4.6-0.9c0.4,3,1.3,5.9,2.7,8.6l4.8-4.8L10,13.4z"/>
<path class="st0" d="M17,6.4c-0.2-0.2-0.5-0.4-0.7-0.6c0,0,0,0,0,0c-1-0.6-2.2-0.8-3.4-0.5c0,0,0,0,0,0c-2.2,0.7-3.4,3-2.8,5.1
	c0.2,0.7,0.6,1.3,1,1.7h0l2.9,2.9l5.8-5.8L17,6.4z"/>
<path class="st0" d="M21,8.2l0.5-0.6c-0.6-0.3-1.3-0.5-1.9-0.8L21,8.2z"/>
<path class="st0" d="M10.4,25.4c-0.3-0.5-0.6-1-0.9-1.5C9.7,24.4,10,25,10.4,25.4z"/>
<path class="st0" d="M13.5,28.5l5.8-5.9l-2.9-2.9c-1.6-1.6-4.2-1.6-5.9,0c-1.1,1.1-1.4,2.6-1,4.1c0.3,0.5,0.6,1,0.9,1.5l0.2,0.2
	L13.5,28.5z"/>
<path class="st0" d="M17.5,12.8c-1.6,1.6-1.6,4.2,0,5.8l2.9,2.9l5.8-5.9l-2.9-2.9C21.8,11.2,19.1,11.2,17.5,12.8z"/>
<path class="st0" d="M24.5,11.7l2.9,2.9l2.5-2.5c-2.1-1.3-4.4-2.6-6.6-3.7C23.2,9.6,23.6,10.8,24.5,11.7z"/>
<path class="st0" d="M17,26.2c-1.6,1.6-1.6,4.2,0,5.8l2.9,2.9l5.8-5.9l-2.9-2.9C21.2,24.5,18.6,24.6,17,26.2z"/>
<path class="st0" d="M23.9,19.2c-1.6,1.6-1.6,4.2,0.1,5.8l2.9,3l5.8-5.9l-2.9-2.9C28.2,17.6,25.6,17.6,23.9,19.2z"/>
<path class="st0" d="M30.9,18.1l2.9,2.9l3.7-3.7c-2.3-1.7-4.7-3.3-6.9-4.7C29.3,14.2,29.4,16.6,30.9,18.1z"/>
<path class="st0" d="M15.8,33.2c-0.3-0.3-0.6-0.5-1-0.7c1,1.4,2,2.9,3.1,4.4l0.7-0.7L15.8,33.2z"/>
<path class="st1" d="M40.3,0c-1.4,5.4-1.9,10.9-1.5,16.5c0.8,8.6,8.6,15,20.6,31.2c1.3,1.7,4,5.5,3.3,10c-0.2,1.3-0.7,2.5-1.4,3.6
	c-1.1,0.7-2.3,1.2-3.6,1.4c-4.4,0.7-8.3-2-10-3.3C31.5,47.5,25.1,39.7,16.5,38.8C10.9,38.5,5.4,39,0,40.4c0,0,8.9,3,19.1,7
	s21,23.9,31.7,25.6s11.4-3.9,11.4-3.9l7.3,6.7l3-3l0.3-0.3l3-3l-6.7-7.3c0,0,5.7-0.7,3.9-11.4S51.5,29.3,47.4,19.1S40.3,0,40.3,0z"
	/>
<path class="st0" d="M5.7,10.8c0.4-0.1,0.8-0.2,1.3-0.2c0.4,0,0.8,0.1,1.2,0.2l0,0c0-0.5,0-1.1,0.1-1.6c0.1-0.9,0.4-1.8,0.9-2.6
	c0.6-0.8,1.4-1.5,2.3-1.9l0,0c0,0-3.6-1.1-5.3,0.6S5.7,10.8,5.7,10.8z"/>
</svg>
