<svg xmlns="http://www.w3.org/2000/svg" viewBox="0 0 75.91 75.86"><defs><style>.cls-1{fill:#f4d600;}.cls-2{fill:#2b8918;}</style></defs><title>Asset 3</title><g id="Layer_2" data-name="Layer 2"><g id="Layer_1-2" data-name="Layer 1"><path class="cls-1" d="M42.63,51.75a4.14,4.14,0,0,0,0,5.85l2.93,2.92,5.84-5.85-2.93-2.92A4.14,4.14,0,0,0,42.63,51.75Z"/><path class="cls-1" d="M49.59,44.78a4.14,4.14,0,0,0,0,5.85l2.93,2.92,5.84-5.85-2.93-2.92A4.14,4.14,0,0,0,49.59,44.78Z"/><path class="cls-1" d="M56.55,37.81a4.14,4.14,0,0,0,0,5.85l2.93,2.92,5.09-5.09c-1.37-1.52-2.93-3.15-4.62-4.86A4.12,4.12,0,0,0,56.55,37.81Z"/><path class="cls-1" d="M41.49,58.75a4.13,4.13,0,0,0-5-.67c2.09,2.08,4.09,4,5.92,5.56l2-2Z"/><path class="cls-1" d="M49,58.15A4.14,4.14,0,0,0,49,64L52,66.92l5.84-5.85-2.93-2.92A4.14,4.14,0,0,0,49,58.15Z"/><path class="cls-1" d="M56,51.18A4.14,4.14,0,0,0,56,57l2.93,2.92,5.84-5.85-2.93-2.92A4.14,4.14,0,0,0,56,51.18Z"/><path class="cls-1" d="M63,44.21a4.14,4.14,0,0,0,0,5.85L65.89,53l4.34-4.35A43.74,43.74,0,0,0,65.91,43,4.12,4.12,0,0,0,63,44.21Z"/><path class="cls-1" d="M47.9,65.15a4.13,4.13,0,0,0-4.66-.82A34.11,34.11,0,0,0,49.85,69l1-1Z"/><path class="cls-1" d="M55.45,64.55a4.13,4.13,0,0,0-.56,5.15A15,15,0,0,0,62.77,66L61.3,64.54A4.14,4.14,0,0,0,55.45,64.55Z"/><path class="cls-1" d="M62.41,57.58a4.14,4.14,0,0,0,0,5.85l1.52,1.51a24.75,24.75,0,0,0,4.83-6.86l-.5-.5A4.14,4.14,0,0,0,62.41,57.58Z"/><path class="cls-1" d="M69.37,56.46l.07.07A25.27,25.27,0,0,0,71,50.74a2.14,2.14,0,0,0-.24-1.06,4.13,4.13,0,0,0-1.41,6.77Z"/><path class="cls-1" d="M23.4,32.55a4.14,4.14,0,0,0,0,5.85l2.93,2.92,5.84-5.85-2.93-2.92A4.14,4.14,0,0,0,23.4,32.55Z"/><path class="cls-1" d="M30.36,25.58a4.14,4.14,0,0,0,0,5.85l2.93,2.92,5.84-5.85L36.2,25.58A4.14,4.14,0,0,0,30.36,25.58Z"/><path class="cls-1" d="M37.32,24.46l2.93,2.92,4.52-4.53c-2.11-1.72-4.25-3.41-6.4-5a4.13,4.13,0,0,0-1,6.61Z"/><path class="cls-1" d="M22.25,39.55a4.12,4.12,0,0,0-3.06-1.2c1.45,1.89,3,3.77,4.49,5.63l1.5-1.5Z"/><path class="cls-1" d="M29.81,39a4.14,4.14,0,0,0,0,5.85l2.93,2.92,5.84-5.85-2.93-2.92A4.14,4.14,0,0,0,29.81,39Z"/><path class="cls-1" d="M36.77,32a4.14,4.14,0,0,0,0,5.85l2.93,2.92,5.84-5.85L42.61,32A4.14,4.14,0,0,0,36.77,32Z"/><path class="cls-1" d="M43.73,30.86l2.93,2.92,5-5c-1.83-1.64-3.74-3.29-5.68-4.91a4.13,4.13,0,0,0-2.25,7Z"/><path class="cls-1" d="M28.66,46a4.13,4.13,0,0,0-4.18-1c1.7,2,3.42,4,5.14,5.9l2-2Z"/><path class="cls-1" d="M36.22,45.35a4.14,4.14,0,0,0,0,5.85l2.93,2.92L45,48.27l-2.93-2.92A4.14,4.14,0,0,0,36.22,45.35Z"/><path class="cls-1" d="M43.18,38.38a4.14,4.14,0,0,0,0,5.85l2.93,2.92L52,41.3,49,38.38A4.14,4.14,0,0,0,43.18,38.38Z"/><path class="cls-1" d="M50.14,31.41a4.14,4.14,0,0,0,0,5.85l2.93,2.92L58.27,35c-1.58-1.55-3.27-3.15-5-4.76A4.12,4.12,0,0,0,50.14,31.41Z"/><path class="cls-1" d="M35.08,52.35a4.13,4.13,0,0,0-4.77-.77c1.88,2.06,3.75,4,5.56,5.83L38,55.27Z"/><path class="cls-1" d="M10,13.35a4.13,4.13,0,0,0-4.57-.86,25.5,25.5,0,0,0,2.69,8.6l4.81-4.82Z"/><path class="cls-1" d="M12.88,5.34a16.93,16.93,0,0,1,3.38.47A4.14,4.14,0,0,0,12.88,5.34Z"/><path class="cls-1" d="M11.13,12.23l2.93,2.92L19.9,9.3,17,6.38a4.14,4.14,0,0,0-.72-.57,16.93,16.93,0,0,0-3.38-.47,4.14,4.14,0,0,0-1.75,6.89Z"/><path class="cls-1" d="M21,8.18l.55-.56q-.95-.41-1.87-.75Z"/><path class="cls-1" d="M10.41,25.41q-.45-.78-.86-1.54A4.11,4.11,0,0,0,10.41,25.41Z"/><path class="cls-1" d="M13.51,28.53l5.84-5.85-2.93-2.92a4.14,4.14,0,0,0-6.88,4.11q.42.76.86,1.54l.18.19Z"/><path class="cls-1" d="M17.53,12.79a4.14,4.14,0,0,0,0,5.85l2.93,2.92,5.84-5.85-2.93-2.92A4.14,4.14,0,0,0,17.53,12.79Z"/><path class="cls-1" d="M24.5,11.66l2.93,2.92,2.5-2.5A71.83,71.83,0,0,0,23.3,8.42,4.12,4.12,0,0,0,24.5,11.66Z"/><path class="cls-1" d="M17,26.16A4.14,4.14,0,0,0,17,32l2.93,2.92,5.84-5.85-2.93-2.92A4.14,4.14,0,0,0,17,26.16Z"/><path class="cls-1" d="M23.94,19.18A4.14,4.14,0,0,0,24,25L26.88,28l5.84-5.85-2.93-2.92A4.14,4.14,0,0,0,23.94,19.18Z"/><path class="cls-1" d="M30.91,18.06,33.83,21l3.72-3.73c-2.33-1.7-4.65-3.3-6.93-4.73A4.14,4.14,0,0,0,30.91,18.06Z"/><path class="cls-1" d="M15.84,33.15a4.13,4.13,0,0,0-1-.71q1.5,2.17,3.15,4.38l.74-.74Z"/><path class="cls-2" d="M40.32,0a54.08,54.08,0,0,0-1.52,16.49c.82,8.63,8.62,15,20.57,31.17,1.27,1.71,4,5.55,3.3,10a9.78,9.78,0,0,1-1.38,3.62,9.78,9.78,0,0,1-3.61,1.39c-4.43.72-8.27-2-10-3.28C31.49,47.45,25.12,39.66,16.49,38.85A54.08,54.08,0,0,0,0,40.4s8.88,3,19.11,7.05,21,23.92,31.69,25.65,11.4-3.93,11.4-3.93l7.33,6.69,3-3,.34-.35,3-3-6.71-7.32s5.66-.68,3.91-11.41S51.53,29.32,47.41,19.1,40.32,0,40.32,0Z"/><path class="cls-1" d="M5.73,10.79A3.85,3.85,0,0,1,7,10.63a7.55,7.55,0,0,1,1.24.2h0a8.7,8.7,0,0,1,.11-1.62,6.08,6.08,0,0,1,.89-2.63,7,7,0,0,1,2.31-1.95h0s-3.62-1.09-5.26.55S5.73,10.79,5.73,10.79Z"/></g></g></svg>