<svg xmlns="http://www.w3.org/2000/svg" viewBox="0 0 410.81 196.87"><defs><style>.cls-1{fill:#6d4f0b;}.cls-2{fill:#eac778;}.cls-3{fill:#fff;}.cls-4{fill:#dbdad9;}.cls-5{fill:#c9c8c7;}.cls-6{fill:#edb674;}.cls-7{fill:#ea2f57;}.cls-8{fill:#bf8b45;}.cls-9{fill:#724a26;}.cls-10{fill:red;}.cls-11{fill:#af8035;}.cls-12{fill:#4c9622;}.cls-13{fill:#bfbebf;}.cls-14{fill:#9b9b9b;}.cls-15{fill:#9b6713;}.cls-16{fill:#ef8903;stroke:#6d4f0b;stroke-width:2px;}.cls-16,.cls-20{stroke-miterlimit:10;}.cls-17{fill:#931174;}.cls-18{fill:#ffcf4a;}.cls-19{fill:#e28f9d;}.cls-20{fill:none;stroke:#f41616;stroke-linecap:round;stroke-width:5px;}.cls-21{fill:#f4d600;}.cls-22{fill:#2b8918;}</style></defs><title>Asset 2</title><g id="Layer_2" data-name="Layer 2"><g id="Layer_1-2" data-name="Layer 1"><ellipse class="cls-1" cx="209.24" cy="114.25" rx="55" ry="69"/><path class="cls-2" d="M209.12,33.11c-35.2,0-63.73,36.66-63.73,81.88s28.53,81.88,63.73,81.88,63.73-36.66,63.73-81.88S244.31,33.11,209.12,33.11ZM204.54,176c-26.22,0-47.48-27.32-47.48-61s21.26-61,47.48-61S252,81.29,252,115,230.76,176,204.54,176Z"/><path class="cls-2" d="M388,4.13c-14.8-7.18-37.5-6.37-43.87,13.63-2.91,9.11,5.54,21,6.63,21.5a3.42,3.42,0,0,0,3.78-1c.81-.79-.61-7-.28-9.7.67-5.51,7.18-11.4,15-10.5a20.8,20.8,0,0,1,7.19,1.71,18.09,18.09,0,0,1,5.78,5c5.17,7,3.66,17.42.7,24.15a25.8,25.8,0,0,1-7.23,9.93c-6.67,5.48-14.91,6-20.69,5.91-27-.49-48.82-15.78-81.19-21.4a145,145,0,0,0-27.13-2.1c21.3,13.25,36,41.29,36,73.74,0,33.1-15.3,61.6-37.3,74.51,14.45-.82,53.54-2.58,75.54-8.58,27.66-7.54,50.67-20,73.36-55.08C420.34,81.87,413.6,16.54,388,4.13Z"/><path class="cls-3" d="M289.36,65.4s-7.47-8.79,2.91-8c6.25.46,19.27,4.24,28.65,7.18,5,1.58,4.25,8.38-1,8.92a38.53,38.53,0,0,1-7.68-.06C296.83,71.89,289.36,65.4,289.36,65.4Z"/><path class="cls-3" d="M331.7,72.57a4.34,4.34,0,0,1,3.37-4c2.4-.57,5.74-.83,6.63,1.84,1.43,4.3-1.14,5.4-5.94,6.14C332.9,77,331.64,75,331.7,72.57Z"/><ellipse class="cls-4" cx="61.11" cy="163.67" rx="61.11" ry="32.31"/><ellipse class="cls-5" cx="61.11" cy="160.92" rx="43.95" ry="23.24"/><path class="cls-6" d="M93.89,150.6c-1.64-3.56,2.46-5.55-.49-9.43-1.61-2.12-3.6,1.07-7.24-2.44-2.08-2,1.17-3.51-2.81-7.36-1.88-1.82-6.2.47-9.25,0s-2.65-3.49-5.46-4.34-5.44,2.42-5.44,2.42L62,131.37,22.63,165.16c.39.66-1.85,2.14,1.15,3.26,1.65.62,37.91,6,65.42,5.91,1,0,1.84-1.17,2.79-2.11V158.87s5.3-.79,5.4-3.86C97.48,152.66,95.13,153.28,93.89,150.6Z"/><path class="cls-7" d="M21.4,154.54l1.38,11.94c3.17.55,5.5.93,7.88,1.28,10.84,1.58,17.46,2.17,24.82,2.94,25.13,2.62,32,2.68,33.26,1.4.53-.55.88-6.79.46-12.64Z"/><path class="cls-8" d="M21.4,154.54c-4-2.49,12.1-12,39-22,0,0,4.09-3.28,18.26,5.85s10.54,21.07,10.54,21.07C62.45,160.52,25.76,157.23,21.4,154.54Z"/><path class="cls-9" d="M55.21,140a19.28,19.28,0,0,1,3.44-2.28c1.05-.36,3,.18,2.46,1.14S55.21,140,55.21,140Z"/><path class="cls-9" d="M64.62,145.13s3.34-3,4.57-2.69,1.4,2.56,0,2.69S64.62,145.13,64.62,145.13Z"/><path class="cls-9" d="M70.7,152a19.45,19.45,0,0,0,4,.66c1.1-.09,3.15-1.87,1.41-2.54C74.58,149.53,70.7,152,70.7,152Z"/><path class="cls-10" d="M141.57,113.35c-6.12-5.81-15.31-2.22-21.15,2.13a11.29,11.29,0,0,1-7.05,2.23c-7.26-.21-16.84,2.15-18.56,10.45-2,9.51,18.52,33.77,27.09,32.14,7.52-1.43,3.34-4.14,7-5,2.4-.66.68,3.56,7.66.4C144.54,152.05,148.58,120,141.57,113.35Z"/><path class="cls-11" d="M116.67,120.89s-3.38-5.87-5.24-6.24,0-2.51,1-2.06A9.05,9.05,0,0,1,116,116C116.63,117.45,119.2,120.28,116.67,120.89Z"/><path class="cls-12" d="M128,95.14s-7.55,1.34-9.57,8.81a25.1,25.1,0,0,0,.46,14s5.38-1.09,8.94-8.3S128,95.14,128,95.14Z"/><path class="cls-13" d="M206,56.28a16.09,16.09,0,0,1,11.82,0c6,2.56,13.93,9.39,13.93,9.39l-13.14,3.6Z"/><path class="cls-14" d="M216.68,61.77c-19.26-19.83-33.43-17-38.6-14.91l1.1,4.12-3.78-.63c-.76,5.21-.47,18.5,16.27,35.73,23,23.62,41.81,21.07,41.81,21.07S241.15,87,216.68,61.77Z"/><path class="cls-13" d="M243.18,120.33c0-2.18,4.08-6.14,6.25-6.08,3.71.11,13.88-4.49,13.88-4.49s-10.28-8-19.4-10.3c-7.11-1.8-11.85-.09-13.61.76l-.17-.17s-.09.13-.23.37l-.37.21.17.17c-.89,1.73-2.74,6.42-1.15,13.58,2,9.18,9.74,19.69,9.74,19.69S243.19,124,243.18,120.33Z"/><circle cx="188.92" cy="58.38" r="4.77" transform="translate(12.75 148.17) rotate(-44.18)"/><path class="cls-13" d="M191.47,80.17s5.68.54,7,8.49a18,18,0,0,1-3.33,13.55S189.64,98.3,188.59,92,191.47,80.17,191.47,80.17Z"/><path class="cls-15" d="M193.7,109.35a22.78,22.78,0,0,0-.38-7.56c-.89-4.47-6.29-6.06-6.29-6.06s.56-4.33,2.14-5.47,10.51-.77,14.68,4.29,3.54,12.37,3.54,12.37.34,4.12-7.13,5.12S193.7,109.35,193.7,109.35Z"/><path class="cls-16" d="M211.1,144.51c1.94,21.62-9.87,40-26.39,41.08S153.23,170,151.29,148.38s9.87-40,26.39-41.08S209.16,122.89,211.1,144.51Z"/><path class="cls-16" d="M254.87,141.68c1.94,21.62-9.87,40-26.39,41.08S197,167.17,195.06,145.55s9.87-40,26.39-41.08S252.93,120.06,254.87,141.68Z"/><path class="cls-16" d="M227.53,143.06c1.94,21.62-7.74,39.87-21.62,40.77s-26.71-15.9-28.65-37.52,7.74-39.87,21.62-40.77S225.59,121.44,227.53,143.06Z"/><circle class="cls-17" cx="109.81" cy="170.61" r="6.16" transform="matrix(0.85, -0.52, 0.52, 0.85, -72.84, 82.27)"/><circle class="cls-17" cx="116.71" cy="181.9" r="6.16" transform="translate(-77.71 87.52) rotate(-31.42)"/><circle class="cls-17" cx="123.59" cy="170.09" r="6.16" transform="translate(-70.55 89.38) rotate(-31.42)"/><circle class="cls-17" cx="130.56" cy="181.49" r="6.16" transform="translate(-75.47 94.68) rotate(-31.42)"/><circle class="cls-17" cx="116.35" cy="158.25" r="6.16" transform="translate(-65.44 83.87) rotate(-31.42)"/><circle class="cls-17" cx="129.85" cy="158.38" r="6.16" transform="translate(-63.53 90.92) rotate(-31.42)"/><circle class="cls-17" cx="137.04" cy="170.15" r="6.16" transform="translate(-68.61 96.4) rotate(-31.42)"/><circle class="cls-17" cx="144.18" cy="181.84" r="6.16" transform="matrix(0.85, -0.52, 0.52, 0.85, -73.66, 101.83)"/><circle class="cls-17" cx="103.55" cy="182.32" r="6.16" transform="translate(-79.86 80.72) rotate(-31.42)"/><circle class="cls-17" cx="122.76" cy="146.78" r="6.16" transform="translate(-58.52 85.53) rotate(-31.42)"/><circle class="cls-17" cx="143.88" cy="157.72" r="6.16" transform="translate(-61.12 98.14) rotate(-31.42)"/><circle class="cls-17" cx="150.84" cy="169.12" r="6.16" transform="matrix(0.85, -0.52, 0.52, 0.85, -66.05, 103.44)"/><circle class="cls-17" cx="136.64" cy="145.87" r="6.16" transform="translate(-56.01 92.63) rotate(-31.42)"/><path class="cls-18" d="M165.34,71.72,113,63.66c-4.93-.76-9.49,2.33-10.2,6.9s2.72,8.89,7.65,9.65l52.32,8.06c4.93.76,9.49-2.33,10.2-6.9S170.27,72.48,165.34,71.72Z"/><path class="cls-19" d="M166.12,78.76,138,75.57l-27.8-5.42c-5.89-.91-11.16,1.55-11.77,5.5s3.68,7.87,9.57,8.78a267.56,267.56,0,0,0,27.88,5.81A267.56,267.56,0,0,0,163.92,93c5.89.91,11.16-1.55,11.77-5.5S172,79.67,166.12,78.76Z"/><path class="cls-18" d="M163.09,86.37l-52.32-8.06c-4.93-.76-9.43,1.92-10.05,6s2.86,8,7.79,8.72l52.32,8.06c4.93.76,9.43-1.92,10.05-6S168,87.12,163.09,86.37Z"/><path class="cls-20" d="M107.86,69.8s-1.57,6.53,5,7.38,3.77-6,11.59-4.82c5.93.92.12,6.46,7.72,7.8s3.38-6.08,10.86-4.93c7,1.08,2.22,7,10.22,8.18,5.1.79,2.49-6.23,9.19-5.2s4.6,7.32,4.6,7.32"/><path class="cls-21" d="M171.55,160.1a4.14,4.14,0,0,0,.83,5.79l3.31,2.48,5-6.62-3.31-2.48A4.14,4.14,0,0,0,171.55,160.1Z"/><path class="cls-21" d="M177.46,152.22a4.14,4.14,0,0,0,.83,5.79l3.31,2.48,5-6.62-3.31-2.48A4.14,4.14,0,0,0,177.46,152.22Z"/><path class="cls-21" d="M183.36,144.33a4.14,4.14,0,0,0,.83,5.79l3.31,2.48,4.31-5.76c-1.57-1.31-3.34-2.71-5.26-4.16A4.12,4.12,0,0,0,183.36,144.33Z"/><path class="cls-21" d="M171.41,167.19a4.13,4.13,0,0,0-5,0c2.36,1.76,4.61,3.34,6.65,4.66l1.67-2.23Z"/><path class="cls-21" d="M178.81,165.53a4.14,4.14,0,0,0,.83,5.79l3.31,2.48,5-6.62-3.31-2.48A4.14,4.14,0,0,0,178.81,165.53Z"/><path class="cls-21" d="M184.71,157.65a4.14,4.14,0,0,0,.83,5.79l3.31,2.48,5-6.62-3.31-2.48A4.14,4.14,0,0,0,184.71,157.65Z"/><path class="cls-21" d="M190.61,149.76a4.14,4.14,0,0,0,.83,5.79l3.31,2.48,3.68-4.92a43.74,43.74,0,0,0-5.07-5A4.12,4.12,0,0,0,190.61,149.76Z"/><path class="cls-21" d="M178.66,172.62a4.13,4.13,0,0,0-4.72-.16,34.11,34.11,0,0,0,7.21,3.74l.83-1.11Z"/><path class="cls-21" d="M186.06,171a4.13,4.13,0,0,0,.18,5.17,15,15,0,0,0,7.27-4.76l-1.66-1.24A4.14,4.14,0,0,0,186.06,171Z"/><path class="cls-21" d="M192,163.07a4.14,4.14,0,0,0,.83,5.79l1.71,1.28a24.75,24.75,0,0,0,3.81-7.48l-.57-.43A4.14,4.14,0,0,0,192,163.07Z"/><path class="cls-21" d="M198.69,161l.08.06a25.27,25.27,0,0,0,.74-6,2.14,2.14,0,0,0-.39-1,4.13,4.13,0,0,0-.43,6.9Z"/><path class="cls-21" d="M149.8,143.81a4.14,4.14,0,0,0,.83,5.79l3.31,2.48,5-6.62L155.59,143A4.14,4.14,0,0,0,149.8,143.81Z"/><path class="cls-21" d="M155.7,135.93a4.14,4.14,0,0,0,.83,5.79l3.31,2.48,5-6.62-3.31-2.48A4.14,4.14,0,0,0,155.7,135.93Z"/><path class="cls-21" d="M162.44,133.83l3.31,2.48,3.84-5.12c-2.33-1.41-4.69-2.77-7-4a4.13,4.13,0,0,0-.1,6.69Z"/><path class="cls-21" d="M149.66,150.91a4.12,4.12,0,0,0-3.2-.76c1.7,1.67,3.45,3.32,5.24,4.94l1.27-1.7Z"/><path class="cls-21" d="M157.05,149.24a4.14,4.14,0,0,0,.83,5.79l3.31,2.48,5-6.62-3.31-2.48A4.14,4.14,0,0,0,157.05,149.24Z"/><path class="cls-21" d="M163,141.36a4.14,4.14,0,0,0,.83,5.79l3.31,2.48,5-6.62-3.31-2.48A4.14,4.14,0,0,0,163,141.36Z"/><path class="cls-21" d="M169.69,139.26l3.31,2.48,4.25-5.67c-2-1.37-4.16-2.73-6.32-4.06a4.13,4.13,0,0,0-1.24,7.25Z"/><path class="cls-21" d="M156.91,156.33a4.13,4.13,0,0,0-4.28-.41c2,1.76,4,3.47,5.93,5.11l1.67-2.22Z"/><path class="cls-21" d="M164.3,154.67a4.14,4.14,0,0,0,.83,5.79l3.31,2.48,5-6.62-3.31-2.48A4.14,4.14,0,0,0,164.3,154.67Z"/><path class="cls-21" d="M170.21,146.79a4.14,4.14,0,0,0,.83,5.79l3.31,2.48,5-6.62L176,146A4.14,4.14,0,0,0,170.21,146.79Z"/><path class="cls-21" d="M176.11,138.9a4.14,4.14,0,0,0,.83,5.79l3.31,2.48,4.42-5.9c-1.79-1.31-3.68-2.66-5.65-4A4.12,4.12,0,0,0,176.11,138.9Z"/><path class="cls-21" d="M164.16,161.76a4.13,4.13,0,0,0-4.83-.09c2.15,1.77,4.28,3.45,6.33,5l1.82-2.43Z"/><path class="cls-21" d="M133.84,126.7a4.13,4.13,0,0,0-4.65-.21,25.5,25.5,0,0,0,3.88,8.14l4.08-5.45Z"/><path class="cls-21" d="M135.54,118.36a16.93,16.93,0,0,1,3.41,0A4.14,4.14,0,0,0,135.54,118.36Z"/><path class="cls-21" d="M134.78,125.43l3.31,2.48,5-6.62-3.31-2.48a4.14,4.14,0,0,0-.79-.46,16.93,16.93,0,0,0-3.41,0,4.14,4.14,0,0,0-.76,7.07Z"/><path class="cls-21" d="M144,120l.47-.63q-1-.27-2-.48Z"/><path class="cls-21" d="M135.93,138.58q-.55-.71-1.07-1.41A4.11,4.11,0,0,0,135.93,138.58Z"/><path class="cls-21" d="M139.44,141.22l5-6.62-3.31-2.48a4.14,4.14,0,0,0-6.23,5q.52.7,1.07,1.41l.2.17Z"/><path class="cls-21" d="M141.2,125.07a4.14,4.14,0,0,0,.83,5.79l3.31,2.48,5-6.62L147,124.24A4.14,4.14,0,0,0,141.2,125.07Z"/><path class="cls-21" d="M147.94,123l3.31,2.48,2.12-2.83a71.83,71.83,0,0,0-7.07-2.69A4.12,4.12,0,0,0,147.94,123Z"/><path class="cls-21" d="M142.55,138.39a4.14,4.14,0,0,0,.83,5.79l3.31,2.48,5-6.62-3.31-2.48A4.14,4.14,0,0,0,142.55,138.39Z"/><path class="cls-21" d="M148.45,130.5a4.14,4.14,0,0,0,.83,5.79l3.31,2.48,5-6.62-3.31-2.48A4.14,4.14,0,0,0,148.45,130.5Z"/><path class="cls-21" d="M155.19,128.41l3.31,2.48,3.16-4.22c-2.54-1.36-5.07-2.61-7.53-3.71A4.14,4.14,0,0,0,155.19,128.41Z"/><path class="cls-21" d="M142.41,145.48a4.13,4.13,0,0,0-1.05-.57c1.2,1.29,2.45,2.59,3.74,3.89l.63-.84Z"/><path class="cls-22" d="M162,109.2a54.08,54.08,0,0,0,.83,16.54c2,8.43,10.66,13.62,24.77,28,1.49,1.52,4.76,4.93,4.68,9.41a9.78,9.78,0,0,1-.86,3.78,9.78,9.78,0,0,1-3.38,1.89c-4.28,1.34-8.47-.83-10.35-1.84-17.73-9.5-25.13-16.32-33.8-15.89a54.08,54.08,0,0,0-16.1,3.86s9.21,1.67,19.92,4.28,24.13,20.72,35,20.91,10.73-5.51,10.73-5.51l8.2,5.59,2.56-3.42.29-.39,2.56-3.42-7.67-6.3s5.51-1.48,2.26-11.84-24.4-18.15-29.92-27.69S162,109.2,162,109.2Z"/><path class="cls-21" d="M129.24,124.77a3.85,3.85,0,0,1,1.26-.34,7.55,7.55,0,0,1,1.26,0h0a8.7,8.7,0,0,1-.12-1.61,6.08,6.08,0,0,1,.51-2.73,7,7,0,0,1,2-2.26h0s-3.74-.56-5.13,1.29S129.24,124.77,129.24,124.77Z"/></g></g></svg>